<?xml version="1.0" encoding="utf-8"?><svg viewBox="0 0 197 44" xmlns="http://www.w3.org/2000/svg" xmlns:xlink="http://www.w3.org/1999/xlink"><style>:root>svg{display:none}:root>svg:target{display:block}</style><svg viewBox="0 0 197 31" id="SimpleFood" xmlns="http://www.w3.org/2000/svg"><path d="M9.593 24.33c-1.958 0-3.641-.297-5.049-.891-1.408-.594-2.475-1.375-3.201-2.343S.232 19.083.188 17.961c0-.198.066-.363.198-.495a.672.672 0 01.495-.198h2.937c.264 0 .462.055.594.165.154.088.297.242.429.462.22.748.726 1.375 1.518 1.881s1.87.759 3.234.759c1.562 0 2.739-.253 3.531-.759.792-.528 1.188-1.254 1.188-2.178 0-.616-.209-1.122-.627-1.518-.396-.396-1.001-.737-1.815-1.023-.792-.286-1.98-.638-3.564-1.056-2.596-.616-4.499-1.43-5.709-2.442C1.409 10.525.815 9.062.815 7.17c0-1.276.341-2.409 1.023-3.399.704-.99 1.705-1.771 3.003-2.343C6.161.856 7.69.57 9.428.57c1.804 0 3.366.319 4.686.957 1.32.638 2.321 1.441 3.003 2.409.704.946 1.078 1.892 1.122 2.838a.672.672 0 01-.198.495.672.672 0 01-.495.198h-3.069c-.462 0-.781-.209-.957-.627-.132-.704-.572-1.287-1.32-1.749-.748-.484-1.672-.726-2.772-.726-1.232 0-2.2.231-2.904.693-.704.462-1.056 1.133-1.056 2.013 0 .616.176 1.122.528 1.518.352.396.902.748 1.65 1.056.77.308 1.87.649 3.3 1.023 1.936.44 3.476.935 4.62 1.485 1.166.55 2.024 1.243 2.574 2.079.55.836.825 1.903.825 3.201 0 1.408-.396 2.64-1.188 3.696-.77 1.034-1.87 1.826-3.3 2.376-1.408.55-3.036.825-4.884.825zM24.43 4.002a.764.764 0 01-.561-.231.764.764 0 01-.231-.561V.834c0-.22.077-.407.23-.561a.764.764 0 01.562-.231h3.003c.22 0 .407.077.56.231a.719.719 0 01.265.561V3.21c0 .22-.077.407-.231.561a.804.804 0 01-.594.231H24.43zM24.562 24a.764.764 0 01-.561-.231.764.764 0 01-.231-.561V7.632c0-.22.077-.407.23-.561a.764.764 0 01.562-.231H27.3c.242 0 .429.077.56.231.155.132.232.319.232.561v15.576c0 .22-.077.407-.231.561-.132.154-.32.231-.561.231h-2.74zm10.12 0a.764.764 0 01-.561-.231.764.764 0 01-.231-.561V7.632c0-.22.077-.407.231-.561a.764.764 0 01.561-.231h2.574c.22 0 .407.077.561.231a.764.764 0 01.231.561v1.122c1.144-1.496 2.739-2.244 4.785-2.244 2.442 0 4.147.979 5.115 2.937.528-.88 1.276-1.584 2.244-2.112a6.24 6.24 0 013.135-.825c1.804 0 3.278.616 4.422 1.848 1.144 1.232 1.716 3.025 1.716 5.379v9.471c0 .22-.077.407-.231.561-.132.154-.319.231-.561.231h-2.706a.764.764 0 01-.561-.231.764.764 0 01-.231-.561v-9.207c0-1.386-.297-2.387-.891-3.003-.572-.638-1.342-.957-2.31-.957-.858 0-1.595.319-2.211.957-.594.638-.891 1.639-.891 3.003v9.207c0 .22-.077.407-.231.561a.764.764 0 01-.561.231h-2.706a.764.764 0 01-.561-.231.764.764 0 01-.231-.561v-9.207c0-1.386-.308-2.387-.924-3.003-.594-.638-1.353-.957-2.277-.957-.88 0-1.628.319-2.244.957-.594.638-.891 1.639-.891 3.003v9.207c0 .22-.077.407-.231.561a.764.764 0 01-.561.231h-2.772zm31.23 6.27a.764.764 0 01-.562-.231c-.154-.132-.23-.319-.23-.561V7.632c0-.242.076-.429.23-.561a.764.764 0 01.561-.231h2.607c.242 0 .43.077.561.231.154.132.231.319.231.561v1.32c1.232-1.628 2.992-2.442 5.28-2.442 2.222 0 3.927.704 5.115 2.112 1.188 1.386 1.826 3.267 1.914 5.643.022.264.033.649.033 1.155 0 .528-.01.924-.033 1.188-.088 2.31-.726 4.18-1.914 5.61-1.188 1.408-2.893 2.112-5.115 2.112-2.222 0-3.916-.781-5.082-2.343v7.491c0 .242-.077.429-.23.561-.133.154-.32.231-.562.231h-2.805zm7.457-9.471c2.376 0 3.641-1.463 3.795-4.389.022-.22.033-.55.033-.99 0-.44-.01-.77-.033-.99-.154-2.926-1.419-4.389-3.795-4.389-1.276 0-2.222.407-2.838 1.221-.616.814-.957 1.815-1.023 3.003l-.033 1.254.033 1.287c.044 1.1.385 2.046 1.023 2.838.66.77 1.606 1.155 2.838 1.155zM87.601 24a.764.764 0 01-.561-.231.764.764 0 01-.231-.561V1.362c0-.242.077-.429.23-.561a.764.764 0 01.562-.231h2.739c.242 0 .429.077.56.231.155.132.232.319.232.561v21.846c0 .22-.077.407-.231.561-.132.154-.32.231-.561.231H87.6zm16.719.33c-2.442 0-4.389-.704-5.84-2.112-1.43-1.43-2.19-3.432-2.278-6.006l-.033-.825.033-.825c.11-2.508.88-4.477 2.31-5.907 1.452-1.43 3.388-2.145 5.808-2.145 2.596 0 4.598.792 6.006 2.376 1.43 1.584 2.145 3.696 2.145 6.336v.693c0 .22-.077.407-.231.561a.804.804 0 01-.594.231H100.69v.264c.044 1.21.374 2.233.99 3.069.638.814 1.507 1.221 2.607 1.221 1.298 0 2.343-.506 3.135-1.518.198-.242.352-.396.462-.462.132-.066.319-.099.561-.099h2.838c.198 0 .363.066.495.198.154.11.231.253.231.429 0 .528-.319 1.155-.957 1.881-.616.704-1.507 1.32-2.673 1.848-1.166.528-2.519.792-4.059.792zm3.663-10.395v-.099c0-1.298-.33-2.343-.99-3.135-.638-.792-1.529-1.188-2.673-1.188-1.144 0-2.035.396-2.673 1.188-.638.792-.957 1.837-.957 3.135v.099h7.293zM118.581 24a.764.764 0 01-.561-.231.764.764 0 01-.231-.561V1.725a.88.88 0 01.198-.594.804.804 0 01.594-.231h14.322c.242 0 .44.077.594.231a.804.804 0 01.231.594v2.31c0 .242-.077.44-.231.594a.88.88 0 01-.594.198H122.31v6.27h9.933c.242 0 .44.077.594.231a.804.804 0 01.231.594v2.31c0 .242-.077.44-.231.594a.88.88 0 01-.594.198h-9.933v8.184c0 .242-.077.44-.231.594a.88.88 0 01-.594.198h-2.904zm27.318.33c-2.574 0-4.565-.66-5.973-1.98-1.408-1.342-2.167-3.168-2.277-5.478l-.033-1.452.033-1.452c.11-2.288.88-4.103 2.31-5.445 1.43-1.342 3.41-2.013 5.94-2.013 2.53 0 4.51.671 5.94 2.013 1.43 1.342 2.2 3.157 2.31 5.445.022.264.033.748.033 1.452s-.011 1.188-.033 1.452c-.11 2.31-.869 4.136-2.277 5.478-1.408 1.32-3.399 1.98-5.973 1.98zm0-3.267c1.166 0 2.068-.363 2.706-1.089.638-.748.99-1.837 1.056-3.267.022-.22.033-.649.033-1.287 0-.638-.011-1.067-.033-1.287-.066-1.43-.418-2.508-1.056-3.234-.638-.748-1.54-1.122-2.706-1.122s-2.068.374-2.706 1.122c-.638.726-.99 1.804-1.056 3.234l-.033 1.287.033 1.287c.066 1.43.418 2.519 1.056 3.267.638.726 1.54 1.089 2.706 1.089zm20.949 3.267c-2.574 0-4.565-.66-5.973-1.98-1.408-1.342-2.167-3.168-2.277-5.478l-.033-1.452.033-1.452c.11-2.288.88-4.103 2.31-5.445 1.43-1.342 3.41-2.013 5.94-2.013 2.53 0 4.51.671 5.94 2.013 1.43 1.342 2.2 3.157 2.31 5.445.022.264.033.748.033 1.452s-.011 1.188-.033 1.452c-.11 2.31-.869 4.136-2.277 5.478-1.408 1.32-3.399 1.98-5.973 1.98zm0-3.267c1.166 0 2.068-.363 2.706-1.089.638-.748.99-1.837 1.056-3.267.022-.22.033-.649.033-1.287 0-.638-.011-1.067-.033-1.287-.066-1.43-.418-2.508-1.056-3.234-.638-.748-1.54-1.122-2.706-1.122s-2.068.374-2.706 1.122c-.638.726-.99 1.804-1.056 3.234l-.033 1.287.033 1.287c.066 1.43.418 2.519 1.056 3.267.638.726 1.54 1.089 2.706 1.089zm19.727 3.267c-2.222 0-3.927-.715-5.115-2.145-1.188-1.43-1.826-3.333-1.914-5.709l-.033-1.089.033-1.056c.066-2.31.693-4.191 1.881-5.643 1.21-1.452 2.926-2.178 5.148-2.178 2.134 0 3.828.726 5.082 2.178V1.362c0-.242.077-.429.231-.561a.764.764 0 01.561-.231h2.805c.242 0 .429.077.561.231.154.132.231.319.231.561v21.846c0 .22-.077.407-.231.561-.132.154-.319.231-.561.231h-2.607a.764.764 0 01-.561-.231.764.764 0 01-.231-.561v-1.221c-1.254 1.562-3.014 2.343-5.28 2.343zm1.221-3.531c1.276 0 2.222-.407 2.838-1.221.616-.814.957-1.815 1.023-3.003.022-.264.033-.693.033-1.287 0-.572-.011-.99-.033-1.254-.044-1.1-.396-2.035-1.056-2.805-.638-.792-1.573-1.188-2.805-1.188-2.376 0-3.641 1.463-3.795 4.389l-.033.99.033.99c.154 2.926 1.419 4.389 3.795 4.389z"/></svg><svg viewBox="0 0 120 40" id="icon-appstore" xmlns="http://www.w3.org/2000/svg"><path d="M0 10.5c0-3.262 0-4.892.533-6.179A7 7 0 014.32.533C5.608 0 7.238 0 10.5 0h99c3.262 0 4.892 0 6.179.533a6.998 6.998 0 013.788 3.788C120 5.608 120 7.238 120 10.5v19c0 3.262 0 4.892-.533 6.179a6.999 6.999 0 01-3.788 3.788c-1.287.533-2.917.533-6.179.533h-99c-3.262 0-4.892 0-6.179-.533A7 7 0 01.533 35.68C0 34.392 0 32.762 0 29.5v-19z"/><path d="M81.526 19.201v2.291H80.09v1.502h1.436V28.1c0 1.744.788 2.44 2.772 2.44.349 0 .681-.04.972-.09v-1.486c-.25.025-.407.041-.681.041-.888 0-1.278-.415-1.278-1.361v-4.649h1.959v-1.502h-1.96v-2.291h-1.784zM90.323 30.664c2.64 0 4.259-1.768 4.259-4.698 0-2.914-1.627-4.69-4.259-4.69-2.64 0-4.266 1.776-4.266 4.69 0 2.93 1.618 4.698 4.266 4.698zm0-1.585c-1.552 0-2.423-1.137-2.423-3.113 0-1.959.871-3.104 2.423-3.104 1.544 0 2.424 1.145 2.424 3.104 0 1.967-.88 3.113-2.424 3.113zM95.967 30.49h1.784v-5.337c0-1.27.955-2.125 2.308-2.125.315 0 .847.058.996.108v-1.76c-.191-.05-.531-.075-.797-.075-1.179 0-2.183.648-2.44 1.536h-.133V21.45h-1.718v9.039zM105.486 22.795c1.32 0 2.183.922 2.225 2.341h-4.566c.1-1.411 1.021-2.34 2.341-2.34zm2.217 5.255c-.332.705-1.071 1.095-2.15 1.095-1.428 0-2.349-1.004-2.408-2.59v-.1h6.384v-.622c0-2.839-1.519-4.557-4.034-4.557-2.549 0-4.167 1.835-4.167 4.723 0 2.889 1.585 4.665 4.175 4.665 2.067 0 3.511-.996 3.918-2.614h-1.718zM69.822 27.152c.138 2.22 1.988 3.64 4.74 3.64 2.943 0 4.784-1.49 4.784-3.864 0-1.867-1.05-2.9-3.596-3.493l-1.368-.335c-1.617-.379-2.271-.887-2.271-1.773 0-1.118 1.015-1.85 2.538-1.85 1.445 0 2.443.715 2.624 1.859h1.876c-.112-2.09-1.953-3.562-4.474-3.562-2.71 0-4.517 1.471-4.517 3.682 0 1.824 1.024 2.908 3.27 3.433l1.6.387c1.643.387 2.365.955 2.365 1.902 0 1.1-1.135 1.901-2.684 1.901-1.66 0-2.813-.748-2.977-1.927h-1.91zM51.335 21.301c-1.229 0-2.291.614-2.839 1.644h-.133V21.45h-1.718v12.044h1.785V29.12h.14c.474.955 1.495 1.52 2.782 1.52 2.282 0 3.735-1.802 3.735-4.674 0-2.872-1.453-4.665-3.752-4.665zm-.506 7.736c-1.495 0-2.432-1.178-2.432-3.063 0-1.892.938-3.07 2.44-3.07 1.51 0 2.415 1.153 2.415 3.062 0 1.918-.904 3.071-2.423 3.071zM61.332 21.301c-1.229 0-2.291.614-2.84 1.644h-.132V21.45h-1.718v12.044h1.784V29.12h.142c.473.955 1.494 1.52 2.78 1.52 2.283 0 3.736-1.802 3.736-4.674 0-2.872-1.453-4.665-3.752-4.665zm-.507 7.736c-1.494 0-2.432-1.178-2.432-3.063 0-1.892.938-3.07 2.44-3.07 1.511 0 2.416 1.153 2.416 3.062 0 1.918-.905 3.071-2.424 3.071zM43.443 30.49h2.048l-4.483-12.415h-2.073L34.452 30.49h1.98l1.143-3.295h4.732l1.136 3.295zm-3.57-10.16h.146l1.798 5.247h-3.751l1.807-5.248zM35.651 8.71v5.99h2.162c1.785 0 2.819-1.1 2.819-3.013 0-1.885-1.042-2.976-2.819-2.976h-2.162zm.93.848h1.129c1.24 0 1.975.788 1.975 2.141 0 1.374-.722 2.154-1.975 2.154h-1.13V9.558zM43.797 14.787c1.32 0 2.129-.884 2.129-2.349 0-1.457-.814-2.345-2.13-2.345-1.32 0-2.133.888-2.133 2.345 0 1.465.81 2.35 2.134 2.35zm0-.793c-.776 0-1.212-.568-1.212-1.556 0-.98.436-1.552 1.212-1.552.772 0 1.212.573 1.212 1.552 0 .984-.44 1.556-1.212 1.556zM52.818 10.18h-.892l-.806 3.45h-.07l-.93-3.45h-.855l-.93 3.45h-.066l-.81-3.45h-.904L47.8 14.7h.917l.93-3.329h.07l.934 3.329h.926l1.241-4.52zM53.846 14.7h.892v-2.644c0-.705.42-1.145 1.079-1.145.66 0 .975.36.975 1.087V14.7h.893v-2.926c0-1.075-.556-1.681-1.565-1.681-.68 0-1.129.303-1.349.805h-.066v-.718h-.86v4.52zM59.09 14.7h.892V8.416h-.892V14.7zM63.338 14.787c1.32 0 2.13-.884 2.13-2.349 0-1.457-.814-2.345-2.13-2.345-1.32 0-2.133.888-2.133 2.345 0 1.465.81 2.35 2.133 2.35zm0-.793c-.776 0-1.212-.568-1.212-1.556 0-.98.436-1.552 1.212-1.552.772 0 1.212.573 1.212 1.552 0 .984-.44 1.556-1.212 1.556zM68.126 14.023c-.485 0-.838-.236-.838-.643 0-.398.282-.61.905-.652l1.104-.07v.378c0 .56-.498.987-1.17.987zm-.228.752c.594 0 1.087-.258 1.357-.71h.07v.635h.86v-3.088c0-.954-.64-1.519-1.772-1.519-1.025 0-1.756.498-1.847 1.274h.863c.1-.32.444-.502.942-.502.61 0 .926.27.926.747v.39l-1.225.07c-1.075.067-1.68.536-1.68 1.35 0 .826.634 1.353 1.506 1.353zM73.213 14.775c.623 0 1.15-.295 1.42-.789h.07v.714h.855V8.416h-.892v2.482h-.067c-.245-.498-.768-.793-1.386-.793-1.141 0-1.876.905-1.876 2.333 0 1.432.726 2.337 1.876 2.337zm.253-3.869c.747 0 1.216.594 1.216 1.536 0 .946-.465 1.532-1.216 1.532-.755 0-1.208-.577-1.208-1.536 0-.95.457-1.532 1.208-1.532zM81.344 14.787c1.32 0 2.13-.884 2.13-2.349 0-1.457-.814-2.345-2.13-2.345-1.32 0-2.133.888-2.133 2.345 0 1.465.81 2.35 2.133 2.35zm0-.793c-.776 0-1.212-.568-1.212-1.556 0-.98.436-1.552 1.212-1.552.772 0 1.212.573 1.212 1.552 0 .984-.44 1.556-1.212 1.556zM84.655 14.7h.892v-2.644c0-.705.42-1.145 1.08-1.145.66 0 .975.36.975 1.087V14.7h.892v-2.926c0-1.075-.556-1.681-1.565-1.681-.68 0-1.129.303-1.349.805h-.066v-.718h-.86v4.52zM92.604 9.055v1.146h-.718v.751h.718v2.553c0 .871.394 1.22 1.386 1.22.174 0 .34-.02.485-.046v-.743c-.124.013-.203.021-.34.021-.444 0-.64-.208-.64-.68v-2.325h.98v-.751h-.98V9.055h-.891zM95.673 14.7h.893v-2.64c0-.684.406-1.145 1.137-1.145.63 0 .967.365.967 1.087V14.7h.892v-2.918c0-1.075-.593-1.685-1.556-1.685-.68 0-1.158.303-1.378.81h-.07v-2.49h-.885V14.7zM102.781 10.852c.66 0 1.092.461 1.113 1.17h-2.283c.05-.705.51-1.17 1.17-1.17zm1.108 2.628c-.166.352-.535.548-1.075.548-.713 0-1.174-.503-1.203-1.295v-.05h3.191v-.311c0-1.42-.759-2.279-2.017-2.279-1.274 0-2.083.917-2.083 2.362 0 1.444.793 2.332 2.087 2.332 1.034 0 1.756-.498 1.959-1.307h-.859zM24.769 20.3a4.989 4.989 0 012.357-4.151 5.128 5.128 0 00-3.992-2.158c-1.679-.176-3.307 1.005-4.163 1.005-.872 0-2.19-.987-3.608-.958a5.359 5.359 0 00-4.473 2.728c-1.934 3.348-.491 8.27 1.361 10.976.927 1.325 2.01 2.805 3.428 2.753 1.387-.058 1.905-.885 3.58-.885 1.658 0 2.144.885 3.59.852 1.489-.024 2.426-1.332 3.32-2.67a10.96 10.96 0 001.52-3.092 4.824 4.824 0 01-2.92-4.4zM22.037 12.211a4.872 4.872 0 001.115-3.49 4.957 4.957 0 00-3.208 1.66 4.678 4.678 0 00-1.143 3.36 4.148 4.148 0 003.236-1.53zM4.321 39.467l-.382.924.382-.924zm115.146-3.788l.924.383-.924-.383zm-3.788 3.788l.382.924-.382-.924zm0-38.934l.382-.924-.382.924zm3.788 3.788l.924-.382-.924.382zM10.5 1h99v-2h-99v2zM119 10.5v19h2v-19h-2zM109.5 39h-99v2h99v-2zM1 29.5v-19h-2v19h2zm9.5 9.5c-1.644 0-2.828 0-3.762-.064-.925-.063-1.533-.185-2.034-.393l-.765 1.848c.785.325 1.636.47 2.663.54 1.018.07 2.28.069 3.898.069v-2zM-1 29.5c0 1.617 0 2.88.069 3.898.07 1.027.215 1.878.54 2.663l1.848-.765c-.208-.5-.33-1.109-.393-2.034C1.001 32.328 1 31.145 1 29.5h-2zm5.704 9.043a6 6 0 01-3.247-3.247l-1.848.766a8 8 0 004.33 4.329l.765-1.848zM119 29.5c0 1.645-.001 2.828-.064 3.762-.063.925-.185 1.533-.393 2.034l1.848.766c.325-.786.47-1.637.54-2.664.07-1.018.069-2.28.069-3.898h-2zM109.5 41c1.617 0 2.88 0 3.898-.069 1.027-.07 1.878-.215 2.663-.54l-.765-1.848c-.501.208-1.109.33-2.034.393-.934.063-2.118.064-3.762.064v2zm9.043-5.704a6 6 0 01-3.247 3.247l.765 1.848a7.998 7.998 0 004.33-4.33l-1.848-.765zM109.5 1c1.644 0 2.828 0 3.762.064.925.063 1.533.185 2.034.393l.765-1.848c-.785-.325-1.636-.47-2.663-.54C112.38-1.001 111.117-1 109.5-1v2zm11.5 9.5c0-1.617.001-2.88-.069-3.898-.07-1.027-.215-1.878-.54-2.663l-1.848.765c.208.5.33 1.109.393 2.034.063.934.064 2.118.064 3.762h2zm-5.704-9.043a6 6 0 013.247 3.247l1.848-.765a7.998 7.998 0 00-4.33-4.33l-.765 1.848zM10.5-1c-1.617 0-2.88 0-3.898.069-1.027.07-1.878.215-2.663.54l.765 1.848c.5-.208 1.109-.33 2.034-.393C7.672 1.001 8.856 1 10.5 1v-2zM1 10.5c0-1.644 0-2.828.064-3.762.063-.925.185-1.533.393-2.034l-1.848-.765c-.325.785-.47 1.636-.54 2.663C-1.001 7.62-1 8.882-1 10.5h2zM3.939-.391a8 8 0 00-4.33 4.33l1.848.765a6 6 0 013.247-3.247L3.939-.391z"/></svg><svg viewBox="0 0 14 13" id="icon-arrow" xmlns="http://www.w3.org/2000/svg"><path d="M8.121.293a1 1 0 000 1.414L11.413 5 1 5.007a1 1 0 000 2L11.414 7l-3.293 3.293a1 1 0 101.414 1.414l3.586-3.585a3 3 0 000-4.243L9.535.293a1 1 0 00-1.414 0z"/></svg><svg viewBox="0 0 11 19" id="icon-back" xmlns="http://www.w3.org/2000/svg"><path d="M8.197 18.05L.45 10.302a1.548 1.548 0 010-2.184L8.197.373a1.548 1.548 0 012.184 2.184L3.735 9.203l6.646 6.662c.601.604.601 1.58 0 2.184a1.548 1.548 0 01-2.184 0z"/></svg><svg viewBox="0 0 44 44" id="icon-burger" xmlns="http://www.w3.org/2000/svg"><g clip-path="url(#eclip0_669_756)"><path d="M44 20.336c0-1.69-1.09-3.128-2.602-3.653-.232-5.241-2.189-9.263-5.825-11.966C32.254 2.251 27.688 1 22 1 16.312 1 11.746 2.25 8.427 4.717 4.791 7.42 2.834 11.442 2.602 16.683A3.873 3.873 0 000 20.336c0 .99.374 1.893.988 2.578A3.851 3.851 0 000 25.492c0 1.7 1.103 3.146 2.63 3.663.553 5.89 5.56 10.517 11.636 10.517h15.468c6.076 0 11.084-4.627 11.636-10.517A3.873 3.873 0 0044 25.492c0-.99-.374-1.893-.988-2.578A3.852 3.852 0 0044 20.336zM22 3.578c7.393 0 16.151 2.28 16.803 12.89H5.197C5.849 5.859 14.607 3.579 22 3.579zM3.867 19.047h36.266c.71 0 1.289.578 1.289 1.289 0 .71-.578 1.289-1.29 1.289H3.868a1.29 1.29 0 01-1.289-1.29c0-.71.578-1.288 1.29-1.288zm25.867 18.047H14.266c-4.581 0-8.383-3.367-9.016-7.735h1.195c.862 0 1.134.293 1.677.878.667.718 1.58 1.7 3.566 1.7 2 0 2.889-.993 3.538-1.718.513-.572.77-.86 1.618-.86.848 0 1.105.288 1.617.86.65.725 1.54 1.718 3.539 1.718 2 0 2.89-.993 3.538-1.718.513-.572.77-.86 1.618-.86.848 0 1.105.288 1.618.86.65.725 1.539 1.718 3.538 1.718 2 0 2.89-.993 3.539-1.718.513-.572.77-.86 1.618-.86h1.281c-.633 4.367-4.435 7.735-9.016 7.735zM40.133 26.78h-2.664c-2 0-2.89.993-3.539 1.719-.512.572-.77.86-1.617.86-.848 0-1.106-.288-1.618-.86-.65-.726-1.539-1.719-3.539-1.719s-2.889.993-3.538 1.719c-.513.572-.77.86-1.618.86-.848 0-1.105-.288-1.618-.86-.65-.726-1.538-1.719-3.538-1.719-2 0-2.89.993-3.539 1.719-.512.572-.77.86-1.617.86-.862 0-1.135-.294-1.677-.878-.667-.718-1.58-1.7-3.566-1.7H3.867a1.29 1.29 0 01-1.289-1.29c0-.71.578-1.289 1.29-1.289h36.265a1.29 1.29 0 010 2.578z"/><path d="M14.266 13.89a1.289 1.289 0 100-2.577 1.289 1.289 0 000 2.578zM29.734 13.89a1.289 1.289 0 100-2.577 1.289 1.289 0 000 2.578zM24.578 11.313a1.289 1.289 0 100-2.579 1.289 1.289 0 000 2.579zM19.422 8.734a1.289 1.289 0 100-2.578 1.289 1.289 0 000 2.578z"/></g><defs><clipPath id="eclip0_669_756"><path d="M0 0h44v44H0z"/></clipPath></defs></svg><svg viewBox="0 0 22 22" id="icon-calling" xmlns="http://www.w3.org/2000/svg"><path d="M13.353 1.5a7.97 7.97 0 017.04 7.032M13.353 5.043a4.426 4.426 0 013.5 3.5"/><path fill-rule="evenodd" clip-rule="evenodd" d="M10.031 11.472c3.99 3.988 4.894-.625 7.434 1.913 2.449 2.448 3.857 2.938.754 6.04-.389.312-2.858 4.07-11.535-4.605-8.677-8.676-4.922-11.148-4.61-11.536 3.11-3.11 3.593-1.695 6.041.753 2.54 2.54-2.072 3.447 1.916 7.435z"/></svg><svg viewBox="0 0 21 20" id="icon-cart" xmlns="http://www.w3.org/2000/svg"><path d="M1 1l2.08.356.963 11.34c.077.926.86 1.636 1.8 1.633h10.909a1.794 1.794 0 001.785-1.528l.949-6.481a1.328 1.328 0 00-1.135-1.502c-.064-.009-14.937-.014-14.937-.014M12.375 8.458h2.773"/><path fill-rule="evenodd" clip-rule="evenodd" d="M5.404 17.756a.54.54 0 01.544.538.541.541 0 01-.544.539.541.541 0 01-.544-.54.54.54 0 01.544-.537zM16.685 17.756c.3 0 .545.241.545.538a.542.542 0 01-.545.539.541.541 0 01-.544-.54.54.54 0 01.544-.537z"/></svg><svg viewBox="0 0 44 44" id="icon-dinner" xmlns="http://www.w3.org/2000/svg"><g clip-path="url(#hclip0_669_809)"><path d="M15.132 13.567h2.124c.552 0 1 .448 1 1v1.465a.645.645 0 001.29 0v-1.465a2.292 2.292 0 00-2.29-2.29h-2.124a.984.984 0 010-1.965h4.711a2.275 2.275 0 002.272-2.273 2.275 2.275 0 00-2.272-2.272h-3.77a.645.645 0 000 1.29h3.77a.984.984 0 010 1.966h-4.711a2.275 2.275 0 00-2.273 2.272 2.275 2.275 0 002.273 2.272zM7.389 17.892h2.108c.544 0 .987.443.987.988v1.454a.644.644 0 101.29 0V18.88a2.279 2.279 0 00-2.277-2.277H7.39a.972.972 0 010-1.94h2.465a.645.645 0 000-1.29H7.389a2.262 2.262 0 00-2.26 2.26 2.262 2.262 0 002.26 2.26zM25.652 26.813a.645.645 0 100-1.29.645.645 0 000 1.29zM28.832 28.273a.645.645 0 100-1.289.645.645 0 000 1.29zM30.723 30.508a.645.645 0 100-1.29.645.645 0 000 1.29zM28.059 25.266a.644.644 0 100-1.29.644.644 0 000 1.29zM25.91 30.938a.645.645 0 100-1.29.645.645 0 000 1.29z"/><path d="M42.911 22.811h-1.828l.904-1.868A2.507 2.507 0 0044 18.49a2.506 2.506 0 00-2.102-2.47c-1.315-2.37-3.885-4.149-7.001-4.86v-.048a.645.645 0 00-1.264-.176 13.86 13.86 0 00-1.197-.1.644.644 0 00-1.163 0c-.405.017-.804.05-1.197.1a.644.644 0 00-1.264.176v.049c-3.116.71-5.686 2.49-7.001 4.859a2.506 2.506 0 00-2.093 2.685c-2.975.277-5.649 1.52-7.655 3.386h-4.05a.909.909 0 00-.69.318H5.43a2.118 2.118 0 00-1.957-1.337 2.106 2.106 0 00-2.082 2.397 2.107 2.107 0 00-1.066 3.104 2.106 2.106 0 001.778 3.229c.878 0 1.648-.554 1.958-1.337h1.704a.91.91 0 00.586.623l2.02.686a10.898 10.898 0 00-.002 1.223c-.316.076-.61.207-.873.383a2.7 2.7 0 00-1.51-.46 2.721 2.721 0 00-2.717 2.719l.002.068h-.754a1.08 1.08 0 00-.985.624c-.181.385-.126.828.144 1.156l1.934 2.35c.207.252.514.397.84.397h27.26a.644.644 0 100-1.29H4.545l-1.604-1.948h39.544l-1.603 1.949h-6.164a.645.645 0 100 1.289h6.258c.327 0 .633-.145.84-.397l1.934-2.35a1.08 1.08 0 00.144-1.156 1.079 1.079 0 00-.984-.624h-.638a5.411 5.411 0 00.64-3.671.645.645 0 00-.52-.52 5.409 5.409 0 00-5.008 1.731c-.37-.2-.79-.316-1.237-.325v-1.226h.688c1.09 0 1.977-.887 1.977-1.977v-.865h4.1c.6 0 1.088-.488 1.088-1.088V23.9c0-.6-.488-1.089-1.089-1.089zM6.291 33.706H4.56l-.002-.068a1.43 1.43 0 012.053-1.284c-.206.383-.323.82-.323 1.284 0 .023.002.045.003.068zm32.225-1.784a4.116 4.116 0 013.184-1.195 4.118 4.118 0 01-1.005 2.98h-1.063l.881-.881a.644.644 0 10-.911-.912l-.914.913a2.712 2.712 0 00-.348-.717c.057-.064.115-.127.176-.188zm-13.013-17.98a10.716 10.716 0 013.309-1.452v.663a.645.645 0 101.29 0v-.918c.364-.052.735-.087 1.108-.106v1.024a.645.645 0 101.289 0V12.13c.373.02.743.054 1.109.106v.918a.645.645 0 101.289 0v-.663c1.206.309 2.333.799 3.309 1.452.95.637 1.724 1.406 2.288 2.256a2.526 2.526 0 00-.604.375 2.506 2.506 0 00-1.607-.587c-.595 0-1.163.215-1.607.587a2.506 2.506 0 00-1.607-.587c-.595 0-1.163.215-1.607.587a2.506 2.506 0 00-1.608-.587c-.594 0-1.162.215-1.607.587a2.506 2.506 0 00-1.607-.587c-.594 0-1.162.215-1.607.587a2.506 2.506 0 00-1.607-.587c-.594 0-1.162.215-1.607.587a2.524 2.524 0 00-.605-.375c.565-.85 1.339-1.619 2.29-2.256zm-3.291 3.333c.43 0 .832.233 1.05.607a.645.645 0 001.114 0c.217-.374.62-.607 1.05-.607.43 0 .832.233 1.05.607a.644.644 0 001.115 0c.217-.374.619-.607 1.05-.607.43 0 .832.233 1.049.607a.644.644 0 001.115 0c.217-.374.62-.607 1.05-.607.43 0 .832.233 1.049.607a.644.644 0 001.115 0c.217-.374.62-.607 1.05-.607.43 0 .832.233 1.05.607a.645.645 0 001.114 0c.217-.374.62-.607 1.05-.607.43 0 .832.233 1.05.607a.644.644 0 001.114 0c.218-.374.62-.607 1.05-.607.67 0 1.214.545 1.214 1.214 0 .67-.545 1.214-1.214 1.214-.43 0-.832-.233-1.05-.607a.645.645 0 00-1.114 0c-.218.374-.62.607-1.05.607-.43 0-.833-.233-1.05-.607a.645.645 0 00-1.115 0c-.217.374-.62.607-1.05.607-.43 0-.832-.233-1.049-.607a.644.644 0 00-1.115 0c-.217.374-.62.607-1.05.607-.43 0-.832-.233-1.05-.607a.645.645 0 00-1.114 0c-.218.374-.62.607-1.05.607-.43 0-.832-.233-1.05-.607a.645.645 0 00-1.114 0 1.22 1.22 0 01-.54.492 13.364 13.364 0 00-4.927-.942 1.215 1.215 0 011.202-1.37zM8.392 23.38h2.472c-.255.316-.493.644-.712.983h-1.76v-.983zm-2.66 3.796H3.558a.645.645 0 00-.643.59.818.818 0 01-.81.747.815.815 0 01-.519-1.443.645.645 0 000-.993.813.813 0 111.33-.697.645.645 0 00.642.59h2.176v1.206zm.221-2.494H4.061a2.128 2.128 0 00-1.36-1.248.814.814 0 111.583-.327.645.645 0 00.642.591h2.177v.665h-.46a.91.91 0 00-.69.319zm4.48 9.025H7.58a1.43 1.43 0 011.427-1.497 1.43 1.43 0 011.428 1.429l-.002.068zm19.879 0h-2.244l-.002-.068a1.43 1.43 0 012.439-1.01 2.704 2.704 0 00-.196 1.01c0 .023.002.045.003.068zm-.817-2.786a2.721 2.721 0 00-2.719 2.718c0 .023.002.045.003.068H11.722l.002-.068c0-1.273-.88-2.344-2.063-2.638a9.739 9.739 0 01-.016-.794l6.592 2.238a4.113 4.113 0 003.753-.556 4.106 4.106 0 001.732-3.375c0-.484-.083-.96-.247-1.412a.645.645 0 10-1.212.438c.113.312.17.64.17.974a2.83 2.83 0 01-1.195 2.327 2.83 2.83 0 01-2.587.383l-9.629-3.27v-2.302h10.55c.323 0 .641.055.946.162a.644.644 0 10.427-1.217 4.144 4.144 0 00-1.373-.234h-5.845c2.056-2.676 5.438-4.427 9.256-4.427 6.253 0 11.34 4.695 11.34 10.467 0 .206-.006.412-.02.616-.389.108-.743.3-1.042.557a2.705 2.705 0 00-1.766-.655zm4.959 2.786h-2.853a1.43 1.43 0 011.427-1.497c.787 0 1.428.641 1.428 1.429 0 .023 0 .046-.002.068zm.404-2.486c-.102.053-.202.11-.297.175a2.704 2.704 0 00-.964-.413 10.977 10.977 0 00-.01-1.287h1.271v1.525zm2.665 2.418c0 .023-.002.046-.003.068h-1.777l.002-.068a2.7 2.7 0 00-.313-1.266 1.43 1.43 0 012.09 1.265zm0-5.92c0 .38-.309.688-.688.688h-3.407c-.098-.53-.232-1.05-.404-1.553h4.499v.865zm5.188-2.154H32.493a11.526 11.526 0 00-.853-1.464h2.735a.645.645 0 000-1.29h-3.756a12.417 12.417 0 00-2.077-1.82l.098.002c.595 0 1.162-.215 1.607-.588a2.506 2.506 0 001.607.588c.595 0 1.163-.215 1.608-.588a2.506 2.506 0 001.607.588c.594 0 1.162-.215 1.607-.588a2.506 2.506 0 001.607.588c.594 0 1.162-.215 1.607-.588.215.18.459.323.72.423l-.96 1.984h-2.267a.644.644 0 100 1.289h5.328v1.464z"/></g><defs><clipPath id="hclip0_669_809"><path d="M0 0h44v44H0z"/></clipPath></defs></svg><svg viewBox="0 0 10 21" id="icon-facebook" xmlns="http://www.w3.org/2000/svg"><path d="M2.547 20.526v-9.631H0V7.427h2.547V4.465C2.547 2.137 4.05 0 7.517 0 8.922 0 9.96.135 9.96.135l-.082 3.238s-1.058-.01-2.213-.01c-1.25 0-1.45.576-1.45 1.532v2.532h3.763l-.164 3.468h-3.6v9.631H2.547z"/></svg><svg viewBox="0 0 17 16" id="icon-frame" xmlns="http://www.w3.org/2000/svg"><path d="M10.318 14.3a.694.694 0 01-.616-.36l-2.041-3.858a.622.622 0 01.05-.66L11.005 5.2 6.538 8.314a.725.725 0 01-.7.046L1.757 6.432a.646.646 0 01-.379-.618.653.653 0 01.449-.574L14.896.69a.719.719 0 01.723.15c.19.18.252.447.16.685l-4.816 12.35a.684.684 0 01-.607.424l-.038.001z"/></svg><svg viewBox="0 0 135 40" id="icon-googleplay" xmlns="http://www.w3.org/2000/svg"><path d="M0 5a5 5 0 015-5h125a5 5 0 015 5v30a5 5 0 01-5 5H5a5 5 0 01-5-5V5z"/><path d="M68.136 21.751c-2.352 0-4.269 1.79-4.269 4.253 0 2.45 1.917 4.253 4.269 4.253 2.353 0 4.27-1.804 4.27-4.253-.001-2.464-1.918-4.253-4.27-4.253zm0 6.832c-1.289 0-2.4-1.063-2.4-2.578 0-1.53 1.112-2.578 2.4-2.578 1.289 0 2.4 1.047 2.4 2.578 0 1.514-1.111 2.578-2.4 2.578zm-9.314-6.832c-2.352 0-4.269 1.79-4.269 4.253 0 2.45 1.917 4.253 4.269 4.253 2.353 0 4.27-1.804 4.27-4.253 0-2.464-1.917-4.253-4.27-4.253zm0 6.832c-1.289 0-2.4-1.063-2.4-2.578 0-1.53 1.112-2.578 2.4-2.578 1.289 0 2.4 1.047 2.4 2.578.001 1.514-1.111 2.578-2.4 2.578zm-11.078-5.526v1.804h4.318c-.129 1.015-.467 1.756-.983 2.271-.628.628-1.611 1.321-3.335 1.321-2.658 0-4.736-2.143-4.736-4.8 0-2.659 2.078-4.802 4.736-4.802 1.434 0 2.481.564 3.254 1.29l1.273-1.274c-1.08-1.03-2.513-1.82-4.527-1.82-3.641 0-6.702 2.964-6.702 6.605 0 3.641 3.061 6.605 6.702 6.605 1.965 0 3.448-.645 4.607-1.853 1.192-1.192 1.563-2.868 1.563-4.22 0-.419-.032-.806-.097-1.128h-6.073v.001zm45.308 1.401c-.354-.95-1.434-2.707-3.641-2.707-2.191 0-4.012 1.724-4.012 4.253 0 2.384 1.805 4.253 4.221 4.253 1.949 0 3.077-1.192 3.545-1.885l-1.45-.967c-.483.71-1.144 1.176-2.095 1.176-.95 0-1.627-.435-2.062-1.289l5.687-2.352-.193-.482zm-5.8 1.418c-.048-1.644 1.273-2.48 2.224-2.48.741 0 1.369.37 1.579.901l-3.803 1.58zM82.629 30h1.868V17.5h-1.868V30zm-3.062-7.298h-.064c-.419-.5-1.225-.95-2.239-.95-2.127 0-4.076 1.868-4.076 4.27 0 2.383 1.949 4.236 4.076 4.236 1.015 0 1.82-.45 2.239-.966h.064v.612c0 1.627-.87 2.497-2.271 2.497-1.144 0-1.853-.82-2.143-1.514l-1.627.677c.467 1.127 1.707 2.513 3.77 2.513 2.191 0 4.044-1.289 4.044-4.43V22.01h-1.772v.692h-.001zm-2.142 5.881c-1.289 0-2.368-1.08-2.368-2.562 0-1.499 1.079-2.594 2.368-2.594 1.272 0 2.271 1.095 2.271 2.594 0 1.482-.999 2.562-2.271 2.562zM101.806 17.5h-4.471V30H99.2v-4.736h2.605c2.068 0 4.102-1.497 4.102-3.882s-2.033-3.883-4.101-3.883zm.048 6.025H99.2V19.24h2.654c1.395 0 2.187 1.155 2.187 2.143 0 .968-.792 2.142-2.187 2.142zm11.532-1.795c-1.351 0-2.75.595-3.329 1.914l1.656.691c.354-.69 1.014-.917 1.705-.917.965 0 1.946.58 1.962 1.608v.13c-.338-.194-1.062-.483-1.946-.483-1.785 0-3.603.981-3.603 2.814 0 1.673 1.464 2.75 3.104 2.75 1.254 0 1.946-.563 2.38-1.223h.064v.965h1.802v-4.793c.001-2.218-1.657-3.456-3.795-3.456zm-.226 6.851c-.61 0-1.463-.306-1.463-1.062 0-.965 1.062-1.335 1.979-1.335.819 0 1.206.177 1.704.418a2.262 2.262 0 01-2.22 1.98zm10.583-6.578l-2.139 5.42h-.064l-2.22-5.42h-2.01l3.329 7.575-1.898 4.214h1.946l5.131-11.789h-2.075zM106.937 30h1.865V17.5h-1.865V30zM47.418 10.243c0 .838-.248 1.505-.745 2.003-.564.592-1.3.888-2.204.888-.866 0-1.603-.3-2.208-.9-.606-.601-.909-1.345-.909-2.233 0-.89.303-1.633.91-2.233.604-.601 1.341-.901 2.207-.901.43 0 .841.084 1.231.25.391.169.704.392.938.67l-.527.529c-.397-.475-.944-.712-1.643-.712-.632 0-1.178.222-1.639.666-.461.444-.69 1.02-.69 1.73 0 .709.229 1.286.69 1.73a2.282 2.282 0 001.639.666c.67 0 1.23-.223 1.676-.67.29-.291.458-.696.503-1.215h-2.179V9.79h2.907c.03.157.043.308.043.453zM52.028 7.737h-2.732v1.902h2.464v.721h-2.464v1.902h2.732V13h-3.503V7h3.503v.737zM55.279 13h-.771V7.737h-1.676V7h4.123v.737h-1.676V13zM59.938 13V7h.771v6h-.771zM64.128 13h-.77V7.737H61.68V7h4.123v.737h-1.676V13zM73.609 12.225c-.59.606-1.323.909-2.2.909-.877 0-1.61-.303-2.2-.909-.59-.606-.883-1.348-.883-2.225s.294-1.619.884-2.225c.589-.606 1.322-.91 2.199-.91.872 0 1.604.305 2.196.914.592.609.888 1.349.888 2.221 0 .877-.295 1.619-.884 2.225zm-3.83-.503a2.2 2.2 0 001.63.674c.643 0 1.187-.225 1.63-.674.444-.45.667-1.024.667-1.722s-.223-1.272-.667-1.722a2.199 2.199 0 00-1.63-.674c-.643 0-1.186.225-1.63.674-.443.45-.666 1.024-.666 1.722s.223 1.272.666 1.722zM75.575 13V7h.938l2.916 4.667h.033l-.033-1.156V7h.77v6h-.804l-3.051-4.894h-.033l.033 1.156V13h-.77z"/><path d="M47.418 10.243c0 .838-.248 1.505-.745 2.003-.564.592-1.3.888-2.204.888-.866 0-1.603-.3-2.208-.9-.606-.601-.909-1.345-.909-2.233 0-.89.303-1.633.91-2.233.604-.601 1.341-.901 2.207-.901.43 0 .841.084 1.231.25.391.169.704.392.938.67l-.527.529c-.397-.475-.944-.712-1.643-.712-.632 0-1.178.222-1.639.666-.461.444-.69 1.02-.69 1.73 0 .709.229 1.286.69 1.73a2.282 2.282 0 001.639.666c.67 0 1.23-.223 1.676-.67.29-.291.458-.696.503-1.215h-2.179V9.79h2.907c.03.157.043.308.043.453zM52.028 7.737h-2.732v1.902h2.464v.721h-2.464v1.902h2.732V13h-3.503V7h3.503v.737zM55.279 13h-.771V7.737h-1.676V7h4.123v.737h-1.676V13zM59.938 13V7h.771v6h-.771zM64.128 13h-.77V7.737H61.68V7h4.123v.737h-1.676V13zM73.609 12.225c-.59.606-1.323.909-2.2.909-.877 0-1.61-.303-2.2-.909-.59-.606-.883-1.348-.883-2.225s.294-1.619.884-2.225c.589-.606 1.322-.91 2.199-.91.872 0 1.604.305 2.196.914.592.609.888 1.349.888 2.221 0 .877-.295 1.619-.884 2.225zm-3.83-.503a2.2 2.2 0 001.63.674c.643 0 1.187-.225 1.63-.674.444-.45.667-1.024.667-1.722s-.223-1.272-.667-1.722a2.199 2.199 0 00-1.63-.674c-.643 0-1.186.225-1.63.674-.443.45-.666 1.024-.666 1.722s.223 1.272.666 1.722zM75.575 13V7h.938l2.916 4.667h.033l-.033-1.156V7h.77v6h-.804l-3.051-4.894h-.033l.033 1.156V13h-.77z"/><g filter="url(#kfilter0_ii_669_748)"><path d="M10.436 7.538c-.291.308-.463.786-.463 1.405v22.116c0 .62.172 1.097.463 1.405l.074.072 12.389-12.389v-.292L10.51 7.465l-.074.073zM27.028 24.278l-4.129-4.131v-.292l4.13-4.13.093.053 4.893 2.78c1.397.794 1.397 2.093 0 2.888l-4.893 2.78-.094.052z"/><g filter="url(#kfilter1_i_669_748)"><path d="M27.122 24.225l-4.224-4.224-12.462 12.463c.46.488 1.221.548 2.078.062l14.608-8.301z"/></g><path d="M27.122 15.777l-14.608-8.3c-.857-.487-1.618-.426-2.078.062l12.463 12.463 4.223-4.225z"/></g><path d="M5 1h125v-2H5v2zm129 4v30h2V5h-2zm-4 34H5v2h125v-2zM1 35V5h-2v30h2zm4 4a4 4 0 01-4-4h-2a6 6 0 006 6v-2zm129-4a4 4 0 01-4 4v2a6 6 0 006-6h-2zm-4-34a4 4 0 014 4h2a6 6 0 00-6-6v2zM5-1a6 6 0 00-6 6h2a4 4 0 014-4v-2z"/><defs><linearGradient id="kpaint0_linear_669_748" x1="21.801" y1="8.709" x2="5.019" y2="25.491" gradientUnits="userSpaceOnUse"><stop stop-color="#00A0FF"/><stop offset=".007" stop-color="#00A1FF"/><stop offset=".26" stop-color="#00BEFF"/><stop offset=".512" stop-color="#00D2FF"/><stop offset=".76" stop-color="#00DFFF"/><stop offset="1" stop-color="#00E3FF"/></linearGradient><linearGradient id="kpaint1_linear_669_748" x1="33.834" y1="20.001" x2="9.638" y2="20.001" gradientUnits="userSpaceOnUse"><stop stop-color="#FFE000"/><stop offset=".409" stop-color="#FFBD00"/><stop offset=".775" stop-color="orange"/><stop offset="1" stop-color="#FF9C00"/></linearGradient><linearGradient id="kpaint2_linear_669_748" x1="24.828" y1="22.295" x2="2.07" y2="45.053" gradientUnits="userSpaceOnUse"><stop stop-color="#FF3A44"/><stop offset="1" stop-color="#C31162"/></linearGradient><linearGradient id="kpaint3_linear_669_748" x1="7.297" y1=".177" x2="17.46" y2="10.339" gradientUnits="userSpaceOnUse"><stop stop-color="#32A071"/><stop offset=".069" stop-color="#2DA771"/><stop offset=".476" stop-color="#15CF74"/><stop offset=".801" stop-color="#06E775"/><stop offset="1" stop-color="#00F076"/></linearGradient><filter id="kfilter0_ii_669_748" x="9.973" y="7.141" width="23.09" height="25.721" filterUnits="userSpaceOnUse" color-interpolation-filters="sRGB"><feFlood flood-opacity="0" result="BackgroundImageFix"/><feBlend in="SourceGraphic" in2="BackgroundImageFix" result="shape"/><feColorMatrix in="SourceAlpha" values="0 0 0 0 0 0 0 0 0 0 0 0 0 0 0 0 0 0 127 0" result="hardAlpha"/><feOffset dy="-.15"/><feComposite in2="hardAlpha" operator="arithmetic" k2="-1" k3="1"/><feColorMatrix values="0 0 0 0 0 0 0 0 0 0 0 0 0 0 0 0 0 0 0.12 0"/><feBlend in2="shape" result="effect1_innerShadow_669_748"/><feColorMatrix in="SourceAlpha" values="0 0 0 0 0 0 0 0 0 0 0 0 0 0 0 0 0 0 127 0" result="hardAlpha"/><feOffset dy=".15"/><feComposite in2="hardAlpha" operator="arithmetic" k2="-1" k3="1"/><feColorMatrix values="0 0 0 0 1 0 0 0 0 1 0 0 0 0 1 0 0 0 0.25 0"/><feBlend in2="effect1_innerShadow_669_748" result="effect2_innerShadow_669_748"/></filter><filter id="kfilter1_i_669_748" x="10.436" y="20.001" width="16.686" height="12.861" filterUnits="userSpaceOnUse" color-interpolation-filters="sRGB"><feFlood flood-opacity="0" result="BackgroundImageFix"/><feBlend in="SourceGraphic" in2="BackgroundImageFix" result="shape"/><feColorMatrix in="SourceAlpha" values="0 0 0 0 0 0 0 0 0 0 0 0 0 0 0 0 0 0 127 0" result="hardAlpha"/><feOffset dy="-.15"/><feComposite in2="hardAlpha" operator="arithmetic" k2="-1" k3="1"/><feColorMatrix values="0 0 0 0 0 0 0 0 0 0 0 0 0 0 0 0 0 0 0.08 0"/><feBlend in2="shape" result="effect1_innerShadow_669_748"/></filter></defs></svg><svg viewBox="0 0 20 20" id="icon-instagram" xmlns="http://www.w3.org/2000/svg"><path d="M9.748 6.499A3.258 3.258 0 006.496 9.75a3.258 3.258 0 003.252 3.251 3.258 3.258 0 003.25-3.251 3.258 3.258 0 00-3.25-3.251zm9.751 3.251c0-1.346.013-2.68-.063-4.025-.076-1.56-.432-2.946-1.573-4.088C16.719.493 15.336.14 13.775.064 12.428-.01 11.094.001 9.75.001 8.404 0 7.07-.011 5.725.064 4.165.14 2.78.496 1.637 1.637.493 2.781.14 4.164.064 5.725-.01 7.072.001 8.406.001 9.75c0 1.344-.012 2.68.063 4.025.076 1.56.432 2.946 1.573 4.088 1.144 1.144 2.527 1.497 4.088 1.573 1.347.076 2.681.063 4.025.063 1.346 0 2.68.013 4.025-.063 1.56-.076 2.946-.432 4.088-1.573 1.144-1.144 1.497-2.527 1.573-4.088.078-1.344.063-2.679.063-4.025zm-9.751 5.003A4.996 4.996 0 014.745 9.75a4.996 4.996 0 015.003-5.003A4.996 4.996 0 0114.75 9.75a4.996 4.996 0 01-5.002 5.003zm5.207-9.042a1.167 1.167 0 01-1.168-1.169c0-.646.522-1.168 1.168-1.168a1.167 1.167 0 01.827 1.995 1.167 1.167 0 01-.827.342z"/></svg><svg viewBox="0 0 24 24" id="icon-location" xmlns="http://www.w3.org/2000/svg"><g fill-rule="evenodd" clip-rule="evenodd"><path d="M14.5 10.5a2.5 2.5 0 10-5 0 2.5 2.5 0 005 0z"/><path d="M12 21c-1.199 0-7.5-5.102-7.5-10.437C4.5 6.387 7.857 3 12 3c4.142 0 7.5 3.387 7.5 7.563C19.5 15.898 13.198 21 12 21z"/></g></svg><svg viewBox="0 0 24 24" id="icon-message" xmlns="http://www.w3.org/2000/svg"><path d="M17.903 8.851l-4.444 3.613c-.84.666-2.02.666-2.86 0L6.12 8.851"/><path fill-rule="evenodd" clip-rule="evenodd" d="M16.909 21C19.95 21.008 22 18.51 22 15.438V8.57C22 5.499 19.95 3 16.909 3H7.09C4.05 3 2 5.499 2 8.57v6.868C2 18.51 4.05 21.008 7.091 21h9.818z"/></svg><svg viewBox="0 0 11 19" id="icon-next" xmlns="http://www.w3.org/2000/svg"><path d="M2.803 18.05l7.746-7.747a1.548 1.548 0 000-2.184L2.803.373A1.548 1.548 0 00.62 2.557l6.646 6.646-6.646 6.662a1.548 1.548 0 000 2.184c.604.601 1.58.601 2.184 0z"/></svg><svg viewBox="0 0 44 44" id="icon-pizza" xmlns="http://www.w3.org/2000/svg"><path d="M43.745 43.752a.859.859 0 01-.892.198L7.159 31.223a4.698 4.698 0 01-4.256.338A4.706 4.706 0 01.359 25.42a46.08 46.08 0 0110.038-15.023A46.078 46.078 0 0125.42.358 4.675 4.675 0 0127.213 0c1.846 0 3.6 1.094 4.35 2.902a4.687 4.687 0 01-.026 3.65l12.418 36.31a.86.86 0 01-.21.89zM12.563 31.325l3.783 1.349a2.186 2.186 0 00-.264-3.235 2.176 2.176 0 00-1.62-.434 2.176 2.176 0 00-1.451.838c-.329.428-.485.95-.448 1.482zM29.974 3.56a2.985 2.985 0 00-3.896-1.614C15.075 6.504 6.505 15.074 1.947 26.077a2.962 2.962 0 000 2.282 2.963 2.963 0 001.614 1.614 2.963 2.963 0 002.282 0 2.963 2.963 0 001.614-1.613 38.432 38.432 0 018.373-12.531 38.434 38.434 0 0112.53-8.373 2.985 2.985 0 001.614-3.896zm7.635 26.06a2.176 2.176 0 00-1.685.855 2.176 2.176 0 00-.434 1.62 2.193 2.193 0 002.458 1.885c.37-.048.716-.192 1.012-.41l-1.35-3.95zm1.922 5.621a3.91 3.91 0 11-2.493-7.29l-1.708-4.995-1.964 1.507a.86.86 0 01-1.047-1.363l2.424-1.86-4.442-12.99a4.68 4.68 0 01-1.282.794C19.91 12.817 12.817 19.91 9.044 29.017c-.13.317-.294.611-.482.882l2.301.82c.08-.693.347-1.354.783-1.922a3.883 3.883 0 013.11-1.53c.854 0 1.681.279 2.371.808a3.884 3.884 0 011.496 2.591c.123.93-.094 1.85-.581 2.613l10.682 3.809.405-.978a.86.86 0 011.588.658l-.372.898 11.406 4.066-2.22-6.49z"/></svg><svg viewBox="0 0 44 44" id="icon-plate" xmlns="http://www.w3.org/2000/svg"><g clip-path="url(#qclip0_669_820)"><path d="M31.158 14.657l-.47-1.531c-.599-1.74-2.51-2.671-4.27-2.08a3.347 3.347 0 00-2.105 2.08l-.47 1.531a8.506 8.506 0 00-.244 3.987 3.754 3.754 0 001.954 2.613l-.527 11.65c-.07.65.143 1.3.587 1.785a2.583 2.583 0 003.78 0 2.248 2.248 0 00.587-1.736l-.53-11.7a3.753 3.753 0 001.95-2.612 8.506 8.506 0 00-.242-3.987zm-1.202 3.735a2.307 2.307 0 01-1.522 1.731.725.725 0 00-.474.711l.557 12.236a.833.833 0 01-.22.657 1.143 1.143 0 01-1.594 0 .864.864 0 01-.216-.705l.553-12.188a.725.725 0 00-.474-.71 2.307 2.307 0 01-1.522-1.732 7.068 7.068 0 01.202-3.31l.47-1.532a1.908 1.908 0 013.568 0l.47 1.532a7.078 7.078 0 01.202 3.31zM19.8 10.872a.73.73 0 00-.733.725v6.223l-1.986 1.963a.72.72 0 00-.214.548l.641 12.685a.98.98 0 01-.277.738c-.401.4-1.055.403-1.46.007l-.007-.007a.98.98 0 01-.277-.738l.646-12.685a.72.72 0 00-.214-.548l-1.986-1.963v-6.223a.73.73 0 00-.733-.725.73.73 0 00-.733.725v6.524a.72.72 0 00.214.512l1.97 1.948-.625 12.364c-.067 1.351.987 2.5 2.354 2.565 1.366.066 2.528-.976 2.594-2.326.004-.08.004-.16 0-.239l-.625-12.364 1.97-1.948a.72.72 0 00.214-.512v-6.524a.73.73 0 00-.733-.725z"/><path d="M15.4 10.872a.73.73 0 00-.733.725v5.799c0 .4.328.724.733.724a.73.73 0 00.733-.724v-5.799a.73.73 0 00-.733-.725zM17.6 10.872a.73.73 0 00-.733.725v5.799c0 .4.328.724.733.724a.73.73 0 00.733-.724v-5.799a.73.73 0 00-.733-.725z"/><path d="M22 0C9.85 0 0 9.735 0 21.745c0 12.009 9.85 21.744 22 21.744s22-9.735 22-21.744C43.986 9.74 34.145.014 22 0zm0 42.04c-11.34 0-20.533-9.087-20.533-20.295C1.467 10.536 10.66 1.45 22 1.45c11.34 0 20.533 9.086 20.533 20.295C42.52 32.948 33.335 42.027 22 42.04z"/><path d="M24.38 35.351a.731.731 0 00-.829-.648h.003a13.618 13.618 0 01-3.108 0 .732.732 0 00-.814.635.727.727 0 00.643.805c1.145.133 2.302.133 3.447 0a.727.727 0 00.658-.792zM33.22 12.405a.74.74 0 00-1.033-.09l-.003.003a.72.72 0 00-.088 1.02 12.936 12.936 0 01-.778 17.648.72.72 0 00-.002 1.025.74.74 0 001.037.002 14.374 14.374 0 00.867-19.608zM17.086 9.582l-.002-.001h-.002.004z"/><path d="M25.46 7.653a14.96 14.96 0 00-8.633.524.722.722 0 00.258 1.404.742.742 0 00.256-.047 13.47 13.47 0 017.773-.472.724.724 0 10.345-1.409zM12.65 30.95a12.887 12.887 0 01-3.85-9.205 12.85 12.85 0 012.523-7.675.72.72 0 00-.145-1.015.739.739 0 00-1.04.161 14.371 14.371 0 001.472 18.76.74.74 0 001.039 0 .72.72 0 000-1.026z"/></g><defs><clipPath id="qclip0_669_820"><path d="M0 0h44v43.489H0z"/></clipPath></defs></svg><svg viewBox="0 0 24 20" id="icon-quotesL" xmlns="http://www.w3.org/2000/svg"><path d="M5.217 9.565c1.276.116 2.32.609 3.13 1.479.812.869 1.218 1.97 1.218 3.304 0 1.45-.435 2.637-1.304 3.565-.87.87-1.971 1.304-3.304 1.304-1.508 0-2.725-.55-3.653-1.652C.434 16.464 0 14.754 0 12.435 0 7.97 1.478 4.115 4.435.87c.58-.58 1.246-.87 2-.87.637 0 1.188.232 1.652.696.464.405.696.898.696 1.478 0 .638-.232 1.188-.696 1.652-1.507 1.565-2.464 3.478-2.87 5.74zm14.435 0c1.275.116 2.319.609 3.13 1.479.812.869 1.218 1.97 1.218 3.304 0 1.45-.435 2.637-1.304 3.565-.87.87-1.971 1.304-3.305 1.304-1.507 0-2.724-.55-3.652-1.652-.87-1.101-1.304-2.811-1.304-5.13 0-4.464 1.478-8.32 4.435-11.565.58-.58 1.246-.87 2-.87.637 0 1.188.232 1.652.696.463.405.695.898.695 1.478 0 .638-.232 1.188-.695 1.652-1.507 1.565-2.464 3.478-2.87 5.74z"/></svg><svg viewBox="0 0 24 20" id="icon-quotesR" xmlns="http://www.w3.org/2000/svg"><path d="M18.783 9.565c-1.276.116-2.32.609-3.13 1.479-.812.869-1.218 1.97-1.218 3.304 0 1.45.435 2.637 1.304 3.565.87.87 1.971 1.304 3.305 1.304 1.507 0 2.724-.55 3.652-1.652.87-1.101 1.304-2.811 1.304-5.13C24 7.97 22.522 4.115 19.565.87c-.58-.58-1.246-.87-2-.87-.638 0-1.188.232-1.652.696-.464.405-.696.898-.696 1.478 0 .638.232 1.188.696 1.652 1.507 1.565 2.464 3.478 2.87 5.74zm-14.435 0c-1.276.116-2.319.609-3.13 1.479C.405 11.912 0 13.014 0 14.348c0 1.45.435 2.637 1.304 3.565.87.87 1.971 1.304 3.305 1.304 1.507 0 2.724-.55 3.652-1.652.87-1.101 1.304-2.811 1.304-5.13C9.565 7.97 8.087 4.115 5.13.87 4.55.29 3.884 0 3.13 0c-.637 0-1.188.232-1.652.696-.464.405-.695.898-.695 1.478 0 .638.231 1.188.695 1.652 1.508 1.565 2.464 3.478 2.87 5.74z"/></svg><svg viewBox="0 0 21 22" id="icon-search" xmlns="http://www.w3.org/2000/svg"><ellipse cx="9.767" cy="10.63" rx="8.989" ry="8.884"/><path d="M16.018 17.27l3.524 3.475"/></svg><svg viewBox="0 0 22 22" id="icon-timer" xmlns="http://www.w3.org/2000/svg"><g opacity=".9"><path d="M11.575 2.54v-.959a.611.611 0 00-1.222 0v.965c-4.803.333-8.609 4.344-8.609 9.23 0 5.102 4.153 9.254 9.256 9.254 5.103 0 9.256-4.152 9.256-9.255 0-4.91-3.845-8.937-8.681-9.235zM11 19.808c-4.43 0-8.033-3.604-8.033-8.033 0-4.43 3.603-8.032 8.033-8.032s8.033 3.603 8.033 8.032S15.43 19.808 11 19.808z"/><path d="M7.863 17.322a6.39 6.39 0 01-3.234-5.547.305.305 0 10-.611 0 7.003 7.003 0 003.544 6.079.306.306 0 10.3-.532zM9.53 18.16a6.839 6.839 0 01-.353-.102.305.305 0 00-.186.582c.127.04.255.078.385.11a.305.305 0 00.153-.59zM18.885 5.728a.611.611 0 00.863-.865L18.162 3.28a.61.61 0 10-.863.865l1.586 1.583zM11.575 11.661V6.776a.611.611 0 00-1.223 0v5.15c0 .168.088.328.21.443l1.789 1.672a.61.61 0 00.657.117.61.61 0 00.164-1.006l-1.597-1.49z"/></g></svg><svg viewBox="0 0 21 17" id="icon-twitter" xmlns="http://www.w3.org/2000/svg"><path d="M20.526 1.98a8.436 8.436 0 01-2.422.652 4.196 4.196 0 001.85-2.319 8.304 8.304 0 01-2.67 1.017A4.196 4.196 0 0014.212 0a4.205 4.205 0 00-4.206 4.208c0 .326.04.652.104.965A11.954 11.954 0 011.436.77a4.177 4.177 0 00-.573 2.124c0 1.46.743 2.748 1.875 3.505a4.243 4.243 0 01-1.902-.535v.051a4.207 4.207 0 003.372 4.13 4.456 4.456 0 01-1.107.143c-.274 0-.533-.027-.795-.064a4.214 4.214 0 003.933 2.918 8.43 8.43 0 01-5.223 1.798c-.352 0-.678-.012-1.016-.051a11.911 11.911 0 006.46 1.887c7.737 0 11.97-6.41 11.97-11.972 0-.182 0-.365-.013-.547a9.06 9.06 0 002.11-2.176z"/></svg><svg viewBox="0 0 44 44" id="icon-whater" xmlns="http://www.w3.org/2000/svg"><path d="M41.8 6.6h-1.467V5.133a2.2 2.2 0 00-2.2-2.2h-1.747L35.326.811A1.457 1.457 0 0034.012 0H33c-.81 0-1.467.657-1.467 1.467v1.466h-8.066a2.2 2.2 0 00-2.2 2.2V6.6H19.8a2.2 2.2 0 00-2.2 2.2v1.467c0 .81.657 1.466 1.467 1.466h.077l.858 7.577-3.533-.83a11.127 11.127 0 00-.576-.813L14.646 12.3a.733.733 0 00-.713-.568H9.72C7.73 9.981 5.382 9.19 3.61 9.711L2.532 8.537a1.448 1.448 0 00-1.605-.366c-.56.216-.93.755-.928 1.355v32.289A2.188 2.188 0 002.185 44h35.948c.373 0 .686-.28.728-.65l3.593-31.617h.08c.81 0 1.466-.657 1.466-1.466V8.8a2.2 2.2 0 00-2.2-2.2zM33 1.467h1.013l.734 1.466H33V1.467zM22.733 5.133c0-.405.329-.733.734-.733h14.666c.405 0 .734.328.734.733V6.6H22.733V5.133zm-2.053 15.84l.046.009.593.14.397 4.162a6.758 6.758 0 00-3.94-1.242 6.28 6.28 0 00-.411-3.848l3.315.78zm1.433 6.487l.01.008c.265.245.517.505.755.778a8.686 8.686 0 011.876 3.388c.124.437.188.89.19 1.344l-6.85-7.47c1.524.17 2.943.86 4.019 1.952zm-7.728-9.32v-.002c1.583 1.819 2.32 4.003 1.97 5.472l-7.463-8.137c1.505-.336 3.795.721 5.493 2.667zm-1.038-4.94l.586 2.497a9.342 9.342 0 00-1.913-1.154 11.558 11.558 0 00-.928-1.343h2.255zm-3.687.546h.003c.06.07.11.146.17.22a3.99 3.99 0 00-2.012.338l-3.015-3.288c1.474.021 3.398 1.058 4.854 2.73zm21.077 28.356a.717.717 0 01-.656.431H2.185a.719.719 0 01-.718-.718L1.453 9.533l14.72 16.048v.004l8.644 9.424.01.011 4.74 5.172c.018.022.035.044.055.065l.983 1.072a.716.716 0 01.132.773zm-4.54-7.757a4.61 4.61 0 00.203-1.352c.385.325.744.68 1.074 1.061.41.468.773.975 1.086 1.513.428.72.73 1.507.895 2.329l-3.257-3.551zm11.281 8.188h-5.342c.275-.76.1-1.61-.45-2.2l-.74-.806a6.691 6.691 0 00-.571-3.594h7.854l-.75 6.6zm.917-8.066h-8.8a11.218 11.218 0 00-1.009-1.375 10.69 10.69 0 00-2.512-2.136 10.145 10.145 0 00-2.09-3.676c-.22-.25-.44-.482-.671-.706l-.58-6.11a.733.733 0 00-.56-.644l-.65-.154-.154-1.333h18.86l-1.834 16.134zm2-17.6H21.203l-.58-5.134h20.357l-.583 5.134zm2.138-6.6H19.067V8.8c0-.405.328-.733.733-.733h22c.405 0 .733.328.733.733v1.467z"/><path d="M31.1 32.267c.042 0 .083-.006.124-.008.011 0 .023.008.034.008a.692.692 0 00.109-.016 3.967 3.967 0 002.899-1.567 5.101 5.101 0 00.714-4.475c-.102-.38-.195-.753-.285-1.113-.572-2.293-1.119-4.456-3.435-4.553-.024 0-.046-.004-.07-.004-.023 0-.057-.006-.09-.006-2.591 0-4.7 2.632-4.7 5.867s2.109 5.867 4.7 5.867zm.568-10.157c.758.298 1.092 1.291 1.604 3.341.092.367.187.751.293 1.14a3.656 3.656 0 01-.464 3.2 2.59 2.59 0 01-.876.734 10.656 10.656 0 00-.733-3.68c-.073-.23-.147-.45-.211-.66-.427-1.389.073-3.188.387-4.075zm-1.576.11a8.05 8.05 0 00-.212 4.393c.068.22.143.448.22.685.367 1.12.807 2.472.627 3.468-1.607-.25-2.86-2.112-2.86-4.366 0-1.947.935-3.6 2.225-4.18zM3.881 38.563l-.518.519A.733.733 0 104.4 40.118l.518-.518a.733.733 0 00-1.037-1.037zM10.893 33.626a.734.734 0 00-1.038-1.037l-.518.518a.733.733 0 101.037 1.038l.519-.519zM4.4 31.748l-.519.519a.733.733 0 101.037 1.037l.519-.519A.733.733 0 004.4 31.748zM4.4 26.615l-.519.518a.733.733 0 101.037 1.037l.519-.518A.733.733 0 004.4 26.615zM11 38.563l-.518.519a.733.733 0 101.036 1.036l.519-.518A.733.733 0 0011 38.563zM16.348 38.563l-.518.518a.734.734 0 101.037 1.037l.518-.518a.733.733 0 00-1.037-1.037z"/></svg></svg>