<svg width="44" height="44" viewBox="0 0 44 44" fill="none" xmlns="http://www.w3.org/2000/svg">
<path d="M43.7453 43.7521C43.5105 43.9838 43.1634 44.0612 42.8529 43.95L7.15858 31.2229C5.91851 31.9812 4.3456 32.1588 2.90297 31.5614C0.508321 30.5694 -0.633013 27.8142 0.358876 25.4194C2.698 19.7726 6.07526 14.718 10.3971 10.3962C14.719 6.07428 19.7735 2.69694 25.4204 0.357899C26.0068 0.11504 26.6146 5.72205e-05 27.2131 5.72205e-05C29.0586 0.000141144 30.8133 1.0937 31.5623 2.90207C32.0662 4.11877 32.0186 5.42829 31.5366 6.55269L43.9546 42.8624C44.0614 43.1745 43.9801 43.5204 43.7453 43.7521ZM12.5632 31.3252L16.3461 32.6739C16.7903 32.2008 17.0067 31.5494 16.92 30.8906C16.8435 30.3105 16.5459 29.7948 16.0817 29.4386C15.6176 29.0824 15.0428 28.9285 14.4623 29.0047C13.8823 29.0811 13.3667 29.3787 13.0105 29.8429C12.6823 30.2706 12.5261 30.7924 12.5632 31.3252ZM29.9743 3.55993C29.3451 2.04073 27.597 1.3167 26.0781 1.94611C15.0747 6.5038 6.50477 15.0738 1.94691 26.0772C1.64209 26.8131 1.64209 27.6236 1.94691 28.3595C2.25173 29.0954 2.82485 29.6685 3.56073 29.9734C4.29661 30.2782 5.10717 30.2782 5.84305 29.9734C6.57893 29.6685 7.15205 29.0954 7.45687 28.3595C9.40773 23.6496 12.2248 19.4337 15.8297 15.8288C19.4346 12.2239 23.6505 9.40693 28.3604 7.45598C29.8796 6.82683 30.6037 5.07895 29.9743 3.55993ZM37.6093 29.6203C37.5315 29.6221 37.4536 29.6266 37.376 29.6368C36.796 29.7131 36.2803 30.0108 35.9242 30.475C35.568 30.9391 35.4139 31.5143 35.4902 32.0943C35.6479 33.2918 36.7501 34.1375 37.948 33.9801C38.3175 33.9315 38.6644 33.7881 38.9603 33.5701L37.6093 29.6203ZM39.5315 35.2411C39.1128 35.4691 38.6528 35.6209 38.1722 35.6842C36.0349 35.9663 34.0675 34.4558 33.7862 32.3186C33.6499 31.2834 33.9249 30.257 34.5606 29.4286C35.1729 28.6307 36.0494 28.1094 37.0382 27.9504L35.3301 22.9558L33.3658 24.4632C32.9893 24.7519 32.4497 24.6811 32.1608 24.3045C31.8719 23.9279 31.943 23.3885 32.3195 23.0996L34.7433 21.2397L30.3009 8.24987C29.9283 8.57385 29.4992 8.8449 29.0185 9.04402C19.9109 12.8166 12.8176 19.9098 9.04525 29.0173C8.91411 29.3341 8.75117 29.6282 8.56323 29.899L10.8645 30.7196C10.9449 30.0262 11.211 29.3648 11.647 28.7967C12.2826 27.9683 13.2029 27.437 14.2381 27.3008C14.4115 27.2779 14.5844 27.2666 14.7565 27.2666C15.6114 27.2666 16.4384 27.5459 17.1281 28.075C17.9566 28.7108 18.4878 29.6309 18.6242 30.6663C18.7465 31.5957 18.5296 32.5163 18.0425 33.2789L28.7252 37.0878L29.13 36.1103C29.2672 35.7794 29.5871 35.5796 29.9243 35.5796C30.0339 35.5796 30.1453 35.6007 30.2529 35.6452C30.6913 35.8268 30.8995 36.3296 30.718 36.7681L30.3462 37.6657L41.7517 41.7324L39.5315 35.2411Z" fill="#363853"/>
</svg>
